<?xml version="1.0" encoding="UTF-8"?>
<!DOCTYPE svg PUBLIC "-//W3C//DTD SVG 1.1//EN" "http://www.w3.org/Graphics/SVG/1.1/DTD/svg11.dtd">
<!-- Creator: CorelDRAW 2020 (64-Bit Versione di prova) -->
<svg xmlns="http://www.w3.org/2000/svg" xml:space="preserve" width="210mm" height="297mm" version="1.1" style="shape-rendering:geometricPrecision; text-rendering:geometricPrecision; image-rendering:optimizeQuality; fill-rule:evenodd; clip-rule:evenodd"
viewBox="0 0 21000 29700"
 xmlns:xlink="http://www.w3.org/1999/xlink"
 xmlns:xodm="http://www.corel.com/coreldraw/odm/2003"
 aria-labelledby="title">
 <defs>
  <style type="text/css">
   <![CDATA[
    .str0 {stroke:white;stroke-width:35.28;stroke-miterlimit:22.9256}
    .fil1 {fill:none;fill-rule:nonzero}
    .fil0 {fill:black}
   ]]>
  </style>
 </defs>
 <rect class="fil0" x="-7.13" y="0.53" width="21000" height="29700"/>
 <g id="Livello_x0020_1">
  <metadata id="CorelCorpID_0Corel-Layer"/>
  <path class="fil1 str0" d="M8826.27 7597.46l0 173.71 265.01 0 0 -173.71c0,-24.69 5.65,-43.32 16.79,-55.74 11.15,-12.42 25.83,-18.63 44.03,-18.63 18.35,0 33.3,6.07 44.73,18.35 11.43,12.28 17.22,30.9 17.22,56.02l0 477.38c0,25.12 -5.79,43.75 -17.36,56.16 -11.57,12.42 -26.53,18.63 -44.59,18.63 -18.48,0 -33.3,-6.21 -44.31,-18.77 -11,-12.56 -16.51,-31.18 -16.51,-56.02l0 -203.76 -265.01 0 0 203.76c0,25.12 -5.78,43.75 -17.35,56.16 -11.57,12.42 -26.53,18.63 -44.59,18.63 -18.49,0 -33.31,-6.21 -44.31,-18.77 -11.01,-12.56 -16.51,-31.18 -16.51,-56.02l0 -477.38c0,-24.84 5.5,-43.32 16.37,-55.74 10.86,-12.42 25.68,-18.63 44.45,-18.63 18.34,0 33.3,6.07 44.73,18.35 11.43,12.28 17.21,31.04 17.21,56.02zm786.42 -74.37c62.94,0 116.84,12.7 161.86,38.25 45.01,25.4 79.16,61.66 102.3,108.65 23.14,46.99 34.72,102.17 34.72,165.53 0,46.84 -6.35,89.46 -19.05,127.7 -12.7,38.38 -31.61,71.55 -57.01,99.63 -25.4,28.08 -56.45,49.53 -93.42,64.48 -36.97,14.82 -79.16,22.3 -126.86,22.3 -47.41,0 -89.89,-7.62 -127.28,-23 -37.54,-15.24 -68.72,-36.83 -93.84,-64.63 -25.12,-27.8 -44.03,-61.24 -56.87,-100.47 -12.84,-39.09 -19.19,-81.42 -19.19,-126.86 0,-46.57 6.63,-89.18 20.04,-128.13 13.4,-38.81 32.74,-71.83 58.14,-99.2 25.26,-27.24 56.16,-48.12 92.57,-62.51 36.26,-14.54 77.61,-21.74 123.89,-21.74zm174.42 311.58c0,-44.31 -7.2,-82.83 -21.45,-115.43 -14.4,-32.46 -34.86,-57.01 -61.39,-73.8 -26.53,-16.65 -57.15,-24.98 -91.58,-24.98 -24.41,0 -47.13,4.66 -67.87,13.83 -20.89,9.31 -38.81,22.72 -53.77,40.36 -14.95,17.64 -26.81,40.21 -35.56,67.59 -8.6,27.52 -12.98,58.28 -12.98,92.43 0,34.57 4.38,65.62 12.98,93.56 8.75,27.79 21.03,50.94 36.83,69.28 15.81,18.35 34.01,32.03 54.47,41.07 20.6,9.17 43.04,13.68 67.59,13.68 31.47,0 60.26,-7.9 86.65,-23.56 26.24,-15.67 47.13,-39.94 62.79,-72.82 15.52,-32.73 23.29,-73.23 23.29,-121.21zm590.97 -199.82l-133.91 0 0 439.99c0,25.4 -5.65,44.17 -17.08,56.45 -11.29,12.27 -25.96,18.34 -43.88,18.34 -18.21,0 -33.16,-6.21 -44.59,-18.63 -11.43,-12.41 -17.22,-31.04 -17.22,-56.16l0 -439.99 -133.91 0c-21.03,0 -36.55,-4.65 -46.71,-13.82 -10.16,-9.32 -15.38,-21.59 -15.38,-36.83 0,-15.67 5.36,-28.09 15.94,-37.26 10.59,-9.17 25.97,-13.69 46.15,-13.69l390.59 0c21.31,0 36.97,4.66 47.42,14.12 10.3,9.45 15.52,21.73 15.52,36.83 0,15.24 -5.36,27.51 -15.81,36.83 -10.44,9.17 -26.1,13.82 -47.13,13.82zm534.68 -6.77l-276.58 0 0 149.02 254.7 0c18.77,0 32.74,4.23 41.91,12.55 9.32,8.33 13.83,19.48 13.83,33.17 0,13.68 -4.51,24.97 -13.54,33.58 -9.18,8.61 -23.15,12.98 -42.2,12.98l-254.7 0 0 172.72 286.03 0c19.33,0 33.87,4.52 43.6,13.41 9.88,8.89 14.82,20.88 14.82,35.7 0,14.25 -4.94,25.96 -14.82,34.85 -9.73,8.89 -24.27,13.41 -43.6,13.41l-333.59 0c-26.67,0 -45.86,-5.93 -57.57,-17.78 -11.71,-11.85 -17.64,-31.04 -17.64,-57.43l0 -455.79c0,-17.64 2.68,-32.04 7.9,-43.18 5.22,-11.15 13.41,-19.34 24.56,-24.42 11.14,-5.08 25.4,-7.62 42.75,-7.62l324.14 0c19.61,0 34.15,4.38 43.6,12.99 9.45,8.75 14.25,20.18 14.25,34.15 0,14.39 -4.8,25.96 -14.25,34.71 -9.45,8.61 -23.99,12.98 -43.6,12.98zm285.61 -30.62l0 441.26 248.92 0c19.75,0 34.99,4.79 45.58,14.39 10.72,9.74 15.94,21.87 15.94,36.41 0,14.81 -5.22,26.95 -15.66,36.12 -10.44,9.17 -25.82,13.83 -45.86,13.83l-296.48 0c-26.67,0 -45.86,-5.93 -57.57,-17.78 -11.71,-11.85 -17.64,-31.04 -17.64,-57.43l0 -466.8c0,-24.69 5.64,-43.32 16.79,-55.74 11.15,-12.42 25.83,-18.63 44.03,-18.63 18.34,0 33.3,6.07 44.73,18.35 11.43,12.28 17.22,31.04 17.22,56.02z"/>
  <g id="_2257432662544">
   <path class="fil1 str0" d="M8802.98 6653.86l99.47 0c54.96,0.04 99.51,44.58 99.51,99.51l-0.04 596.75c0.04,54.96 -44.51,99.51 -99.43,99.51l-99.51 -0.04c-54.88,0.04 -99.43,-44.51 -99.43,-99.43l-0.04 -596.83c0.04,-54.89 44.59,-99.43 99.51,-99.43z"/>
   <circle class="fil1 str0" cx="9499.24" cy="6753.35" r="198.91"/>
   <path class="fil1 str0" d="M9121.28 6952.27l1153.81 0c65.94,0 119.4,53.46 119.4,119.36l-0.04 258.6c0.04,65.9 -53.42,119.36 -119.32,119.36l-1153.85 0c-65.86,0 -119.32,-53.46 -119.32,-119.36l-0.04 -258.6c0.04,-65.9 53.5,-119.36 119.4,-119.36z"/>
  </g>
 </g>
</svg>
